<?xml version="1.0" encoding="UTF-8" standalone="no"?> <svg xmlns:dc="http://purl.org/dc/elements/1.1/" xmlns:cc="http://creativecommons.org/ns#" xmlns:rdf="http://www.w3.org/1999/02/22-rdf-syntax-ns#" xmlns:svg="http://www.w3.org/2000/svg" xmlns="http://www.w3.org/2000/svg" xmlns:sodipodi="http://sodipodi.sourceforge.net/DTD/sodipodi-0.dtd" xmlns:inkscape="http://www.inkscape.org/namespaces/inkscape" id="svg2060" sodipodi:docname="taxi-icon.svg" inkscape:export-filename="/home/joanna/gfx/vector/aiga/aiga_taxi_.png" viewBox="0 0 387.99 355.3" sodipodi:version="0.32" inkscape:export-xdpi="50.568184" inkscape:output_extension="org.inkscape.output.svg.inkscape" inkscape:export-ydpi="50.568184" inkscape:version="0.91 r13725"><defs id="defs179921"></defs><path style="fill:#000000" d="M 168.00977 0 C 160.50977 -1.1842379e-15 155.90039 4.3164074 155.90039 12.816406 L 155.90039 34.068359 L 110.35938 34.068359 C 85.857345 34.068359 72.857422 47.316406 66.857422 62.816406 L 34.984375 144.21094 C 22.358375 145.82094 0 160.50078 0 188.30078 L 0 291.85938 L 30.996094 291.85938 L 30.996094 324.92969 C 30.996094 365.66969 89.234375 365.18969 89.234375 324.92969 L 89.230469 291.85938 L 193.9707 291.85938 L 194.0293 291.85938 L 298.75977 291.85938 L 298.75977 324.92969 C 298.75977 365.18969 356.99023 365.66969 356.99023 324.92969 L 356.99023 291.85938 L 387.99023 291.85938 L 387.99023 188.30078 C 387.99023 160.50078 365.61047 145.82094 352.98047 144.21094 L 321.10938 62.816406 C 315.10938 47.316406 302.10938 34.068359 277.60938 34.068359 L 232.58984 34.068359 L 232.58984 12.816406 C 232.58984 4.3164075 227.98047 0 220.48047 0 L 194.0293 0 L 194.01953 0 L 193.9707 0 L 168.00977 0 z M 162.84375 6.9394531 L 178.77734 6.9394531 L 178.77734 9.5097656 L 172.39062 9.5097656 L 172.39062 27.886719 L 169.22852 27.886719 L 169.22852 9.5097656 L 162.84375 9.5097656 L 162.84375 6.9394531 z M 186.9707 6.9394531 L 190.63672 6.9394531 C 193.03122 13.921672 195.45511 20.9045 197.84961 27.886719 L 194.44922 27.886719 C 193.82842 26.043414 193.26728 24.200728 192.64648 22.357422 L 184.75391 22.357422 C 184.22179 24.200728 183.65906 26.043414 183.12695 27.886719 L 179.66797 27.886719 C 182.09204 20.9045 184.54664 13.921672 186.9707 6.9394531 z M 198.99219 6.9394531 L 202.77539 6.9394531 C 204.36699 9.5012909 206.01937 12.035983 207.66992 14.597656 C 209.3494 12.036282 210.9693 9.5009989 212.53125 6.9394531 L 216.3457 6.9394531 C 214.03988 10.374705 211.73382 13.754201 209.39844 17.189453 C 211.79295 20.76435 214.12893 24.339751 216.52344 27.886719 L 212.65039 27.886719 C 211.32011 25.652409 210.01946 23.417317 208.71875 21.210938 C 208.39357 20.736146 208.00904 20.372635 207.6543 19.646484 C 205.88059 22.383515 204.25533 25.12176 202.57031 27.886719 L 198.72656 27.886719 C 201.12108 24.283894 203.54494 20.680951 205.93945 17.078125 C 203.63362 13.670802 201.32756 10.318847 198.99219 6.9394531 z M 220.20898 6.9394531 L 223.40039 6.9394531 L 223.40039 27.886719 L 220.20898 27.886719 L 220.20898 6.9394531 z M 188.74414 9.0898438 L 185.55078 19.982422 L 191.9082 19.982422 C 190.87354 16.351668 189.80836 12.720598 188.74414 9.0898438 z M 109.98047 63.71875 L 193.90039 63.71875 L 193.96094 63.71875 L 194.01953 63.71875 L 277.99023 63.71875 C 288.49023 63.81575 292.99023 70.316406 295.99023 79.316406 L 319.98047 142.30078 L 194.01953 142.30078 L 193.96094 142.30078 L 193.90039 142.30078 L 67.980469 142.30078 L 91.982422 79.316406 C 94.982422 70.316406 99.484463 63.81575 109.98047 63.71875 z M 61.042969 173.65039 C 75.898969 173.65039 87.943359 185.93961 87.943359 201.09961 C 87.943359 216.25961 75.898969 228.55078 61.042969 228.55078 C 46.186969 228.55078 34.142578 216.25961 34.142578 201.09961 C 34.142578 185.93961 46.186969 173.65039 61.042969 173.65039 z M 326.92969 173.65039 C 341.77969 173.65039 353.83008 185.93961 353.83008 201.09961 C 353.83008 216.25961 341.77969 228.55078 326.92969 228.55078 C 312.06969 228.55078 300.01953 216.25961 300.01953 201.09961 C 300.01953 185.93961 312.06969 173.65039 326.92969 173.65039 z " id="path2072"></path><g id="g2080"></g><g id="g2086"></g><metadata id="metadata179919"></metadata><g transform="scale(1.0288183,0.97198892)" style="font-style:normal;font-weight:normal;font-size:28.73373985px;line-height:125%;font-family:sans-serif;letter-spacing:0px;word-spacing:0px;fill:#b35252;fill-opacity:1;stroke:none;stroke-width:1px;stroke-linecap:butt;stroke-linejoin:miter;stroke-opacity:1" id="text180477"></g></svg> 